<?xml version="1.0" encoding="utf-8"?>
<!-- Generator: Adobe Illustrator 22.0.0, SVG Export Plug-In . SVG Version: 6.00 Build 0)  -->
<svg version="1.1" id="Layer_1" xmlns="http://www.w3.org/2000/svg" xmlns:xlink="http://www.w3.org/1999/xlink" x="0px" y="0px"
	 viewBox="0 0 46.2 56.8" style="enable-background:new 0 0 46.2 56.8;" xml:space="preserve">
<style type="text/css">
	.st0{fill:#FFFFFF;}
</style>
<path class="st0" d="M38.6,30.1c0.1,8.6,7.5,11.4,7.6,11.5c-0.1,0.2-1.2,4.1-3.9,8.1c-2.4,3.5-4.8,6.9-8.7,7c-3.8,0.1-5-2.3-9.4-2.3
	c-4.3,0-5.7,2.2-9.3,2.3c-3.7,0.1-6.6-3.7-9-7.2c-4.9-7-8.6-19.9-3.6-28.6c2.5-4.3,6.9-7,11.7-7.1c3.7-0.1,7.1,2.5,9.4,2.5
	c2.2,0,6.4-3,10.9-2.6c1.9,0.1,7,0.7,10.4,5.6C44.5,19.5,38.5,23,38.6,30.1 M31.5,9.1c2-2.4,3.3-5.7,3-9.1c-2.9,0.1-6.3,1.9-8.4,4.3
	c-1.8,2.1-3.4,5.5-3,8.8C26.2,13.3,29.5,11.5,31.5,9.1"/>
</svg>
