<?xml version="1.0" encoding="utf-8"?>
<!-- Generator: Adobe Illustrator 21.1.0, SVG Export Plug-In . SVG Version: 6.00 Build 0)  -->
<svg version="1.1" id="Layer_1" xmlns="http://www.w3.org/2000/svg" xmlns:xlink="http://www.w3.org/1999/xlink" x="0px" y="0px"
	 viewBox="0 0 146.3 40.4" style="enable-background:new 0 0 146.3 40.4;" xml:space="preserve">
<style type="text/css">
	.st0{fill:#283645;}
	.st1{fill:#FFFFFF;}
	.st2{fill:#D22856;}
</style>
<g>
	<path class="st0" d="M71.9,18.7c0-0.7,0.6-1.3,1.3-1.3h7.2c5.1,0,8.4,2.7,8.4,7.1v0.1c0,4.9-4.1,7.4-8.9,7.4h-5.5v6.8
		c0,0.7-0.6,1.3-1.3,1.3c-0.7,0-1.3-0.6-1.3-1.3L71.9,18.7L71.9,18.7z M80,29.6c3.7,0,6.2-2,6.2-5v-0.1c0-3.2-2.4-4.9-6.1-4.9h-5.7
		v9.9L80,29.6L80,29.6z"/>
	<path class="st0" d="M93.6,18.5c0-0.7,0.6-1.3,1.3-1.3c0.7,0,1.3,0.6,1.3,1.3v20.3c0,0.7-0.6,1.3-1.3,1.3c-0.7,0-1.3-0.6-1.3-1.3
		V18.5z"/>
	<path class="st0" d="M102.7,18.5c0-0.7,0.6-1.3,1.3-1.3h0.4c0.6,0,0.9,0.3,1.3,0.7l13.7,17.4v-17c0-0.7,0.5-1.3,1.3-1.3
		c0.7,0,1.2,0.6,1.2,1.3v20.3c0,0.7-0.5,1.2-1.2,1.2h-0.1c-0.5,0-0.9-0.3-1.3-0.8l-14-17.9v17.4c0,0.7-0.5,1.3-1.3,1.3
		c-0.7,0-1.2-0.6-1.2-1.3L102.7,18.5L102.7,18.5z"/>
	<path class="st0" d="M128.2,18.5c0-0.7,0.6-1.3,1.3-1.3c0.7,0,1.3,0.6,1.3,1.3v12.3l12.8-13.2c0.3-0.3,0.6-0.5,1-0.5
		c0.7,0,1.2,0.6,1.2,1.3c0,0.4-0.2,0.6-0.4,0.9l-8,7.9l8.6,10.6c0.2,0.3,0.4,0.5,0.4,0.9c0,0.7-0.6,1.3-1.3,1.3
		c-0.5,0-0.8-0.3-1-0.6L135.6,29l-4.9,4.9v4.9c0,0.7-0.6,1.3-1.3,1.3c-0.7,0-1.3-0.6-1.3-1.3L128.2,18.5L128.2,18.5z"/>
</g>
<path class="st1" d="M60.5,28.3"/>
<path class="st2" d="M60.5,28c0,0-5.2-21.4-5.2-21.4C54.9,4.3,52.7,0,46.7,0c-0.8,0-1.5,0.7-1.5,1.5S45.9,3,46.7,3
	c4.9,0,5.6,3.7,5.6,4.1l4.8,19.7H55c-0.7-5.9-5.8-10.5-11.9-10.5s-11.2,4.6-11.9,10.5h-1.8c-0.7-5.9-5.8-10.5-11.9-10.5
	S6.2,20.9,5.5,26.8H3.4L8.2,7.1C8.3,6.7,9,3,13.8,3c0.8,0,1.5-0.7,1.5-1.5S14.7,0,13.8,0c-6,0-8.2,4.3-8.6,6.7
	c0,0-5.2,21.4-5.2,21.4c-0.3,1.1,0.5,1.8,1.4,1.8c0,0,0,0,0,0h4c0.7,5.9,5.8,10.5,11.9,10.5s11.2-4.6,11.9-10.5h1.8
	c0.7,5.9,5.8,10.5,11.9,10.5S54.3,35.8,55,29.8h4c0,0,0,0,0,0C59.9,29.8,60.7,29.1,60.5,28z M26.3,29.8c-0.7,4.3-4.4,7.5-8.9,7.5
	s-8.2-3.3-8.9-7.5c-0.1-0.5-0.1-1-0.1-1.5c0-0.5,0.1-1,0.1-1.5c0.7-4.3,4.4-7.5,8.9-7.5s8.2,3.3,8.9,7.5c0.1,0.5,0.1,1,0.1,1.5
	C26.5,28.9,26.4,29.4,26.3,29.8z M52,29.8c-0.7,4.3-4.4,7.5-8.9,7.5c-4.5,0-8.2-3.3-8.9-7.5c-0.1-0.5-0.1-1-0.1-1.5
	c0-0.5,0.1-1,0.1-1.5c0.7-4.3,4.4-7.5,8.9-7.5c4.5,0,8.2,3.3,8.9,7.5c0.1,0.5,0.1,1,0.1,1.5C52.1,28.9,52.1,29.4,52,29.8z"/>
</svg>
