<?xml version="1.0" encoding="utf-8"?>
<!-- Generator: Adobe Illustrator 22.0.0, SVG Export Plug-In . SVG Version: 6.00 Build 0)  -->
<svg version="1.1" id="Layer_1" xmlns="http://www.w3.org/2000/svg" xmlns:xlink="http://www.w3.org/1999/xlink" x="0px" y="0px"
	 viewBox="0 0 74.4 22.9" style="enable-background:new 0 0 74.4 22.9;" xml:space="preserve">
<style type="text/css">
	.st0{fill:#FFFFFF;}
</style>
<g>
	<path class="st0" d="M0,1.4c0-0.7,0.6-1.3,1.3-1.3h7.2c5.1,0,8.4,2.7,8.4,7.1v0.1c0,4.9-4.1,7.4-8.9,7.4H2.5v6.8
		c0,0.7-0.6,1.3-1.3,1.3c-0.7,0-1.3-0.6-1.3-1.3V1.4z M8.1,12.4c3.7,0,6.2-2,6.2-5V7.4c0-3.2-2.4-4.9-6.1-4.9H2.5v9.9H8.1z"/>
	<path class="st0" d="M21.7,1.3C21.7,0.6,22.3,0,23,0c0.7,0,1.3,0.6,1.3,1.3v20.3c0,0.7-0.6,1.3-1.3,1.3c-0.7,0-1.3-0.6-1.3-1.3
		L21.7,1.3L21.7,1.3z"/>
	<path class="st0" d="M30.9,1.3c0-0.7,0.6-1.3,1.3-1.3h0.4c0.6,0,0.9,0.3,1.3,0.7l13.7,17.4v-17C47.5,0.6,48,0,48.7,0
		c0.7,0,1.2,0.6,1.2,1.3v20.3c0,0.7-0.5,1.2-1.2,1.2h-0.1c-0.5,0-0.9-0.3-1.3-0.8l-14-17.9v17.5c0,0.7-0.5,1.3-1.3,1.3
		c-0.7,0-1.2-0.6-1.2-1.3V1.3z"/>
	<path class="st0" d="M56.3,1.3c0-0.7,0.6-1.3,1.3-1.3c0.7,0,1.3,0.6,1.3,1.3v12.3L71.7,0.5C72,0.2,72.3,0,72.7,0
		c0.7,0,1.2,0.6,1.2,1.3c0,0.4-0.2,0.6-0.4,0.9l-8,7.9l8.6,10.6c0.2,0.3,0.4,0.5,0.4,0.9c0,0.7-0.6,1.3-1.3,1.3
		c-0.5,0-0.8-0.3-1-0.6l-8.4-10.5l-4.9,4.9v4.9c0,0.7-0.6,1.3-1.3,1.3c-0.7,0-1.3-0.6-1.3-1.3L56.3,1.3L56.3,1.3z"/>
</g>
</svg>
