<?xml version="1.0" encoding="utf-8"?>
<!-- Generator: Adobe Illustrator 21.1.0, SVG Export Plug-In . SVG Version: 6.00 Build 0)  -->
<svg version="1.1" fill="#efefef" id="Layer_1" xmlns="http://www.w3.org/2000/svg" xmlns:xlink="http://www.w3.org/1999/xlink" x="0px" y="0px"
	 viewBox="0 0 78.7 63.8" style="enable-background:new 0 0 78.7 63.8;" xml:space="preserve">
<g>
	<path d="M35,7.1L30.7,0C28.3,1.5,0,12.2,0,39.6c0,7.2,0.3,24.2,18.9,24.2c11.2,0,13.9-10.3,13.9-13.6c0-22-21.4-14.2-21.4-14.2
		C11.5,18,31.3,9.2,35,7.1z"/>
</g>
<g>
	<path d="M78.7,7.1L74.4,0C72,1.5,43.7,12.2,43.7,39.6c0,7.2,0.3,24.2,18.9,24.2c11.2,0,13.9-10.3,13.9-13.6
		c0-22-21.4-14.2-21.4-14.2C55.2,18,75,9.2,78.7,7.1z"/>
</g>
</svg>
