<?xml version="1.0" encoding="utf-8"?>
<svg version="1.1"  xmlns="http://www.w3.org/2000/svg" xmlns:xlink="http://www.w3.org/1999/xlink" x="0px" y="0px"
	 viewBox="0 0 298 345.1" style="enable-background:new 0 0 298 345.1;" xml:space="preserve">
<style type="text/css">
	.st0{fill:#DEDEDE;}
	.st1{fill:#D22856;}
	.st2{font-family:'Open Sans';
	     font-weight: bold;
	      }
	.st3{font-size:141.7504px;}
</style>
<path class="st0 timer-24" width="240" height="276" d="M264.6,102.1l5.4-5.4c7.7-7.7,9.1-18.9,3.1-24.9c-6-6-17.2-4.6-24.9,3.1l-5.4,5.4c-21-17-46.6-28.4-74.7-32
	v-9.6h7.7c10.9,0,19.8-8.7,19.8-19.4S186.6,0,175.7,0h-53.3c-10.9,0-19.8,8.7-19.8,19.4s8.9,19.4,19.8,19.4h7.7v9.6
	C56.7,57.6,0,120.2,0,196.1c0,82.3,66.7,149,149,149c82.3,0,149-66.7,149-149C298,160.4,285.5,127.7,264.6,102.1z"/>
<path class="st1" d="M149,68.9c-69.9,0-126.5,56.6-126.5,126.5c0,69.9,56.6,126.5,126.5,126.5s126.5-56.6,126.5-126.5
	C275.5,125.5,218.9,68.9,149,68.9z M149,306.1c-60.8,0-110.2-49.3-110.2-110.2c0-60.8,49.3-110.2,110.2-110.2
	c60.8,0,110.2,49.3,110.2,110.2C259.2,256.8,209.8,306.1,149,306.1z"/>
<text transform="matrix(0.9221 0 0 1 74.3877 244.52)" class="st1 st2 st3">24</text>
</svg>
